<svg width="40" height="40" viewBox="0 0 40 40" fill="none" xmlns="http://www.w3.org/2000/svg">
<path d="M28.3333 30C29.2173 30 30.0652 30.3512 30.6903 30.9763C31.3154 31.6014 31.6666 32.4493 31.6666 33.3333C31.6666 34.2174 31.3154 35.0652 30.6903 35.6903C30.0652 36.3155 29.2173 36.6666 28.3333 36.6666C27.4492 36.6666 26.6014 36.3155 25.9763 35.6903C25.3511 35.0652 25 34.2174 25 33.3333C25 31.4833 26.4833 30 28.3333 30ZM1.66663 3.33331H7.11663L8.68329 6.66665H33.3333C33.7753 6.66665 34.1992 6.84224 34.5118 7.1548C34.8244 7.46736 35 7.89129 35 8.33331C35 8.61665 34.9166 8.89998 34.8 9.16665L28.8333 19.95C28.2666 20.9666 27.1666 21.6666 25.9166 21.6666H13.5L12 24.3833L11.95 24.5833C11.95 24.6938 11.9939 24.7998 12.072 24.8779C12.1501 24.9561 12.2561 25 12.3666 25H31.6666V28.3333H11.6666C10.7826 28.3333 9.93472 27.9821 9.3096 27.357C8.68448 26.7319 8.33329 25.884 8.33329 25C8.33329 24.4166 8.48329 23.8666 8.73329 23.4L11 19.3166L4.99996 6.66665H1.66663V3.33331ZM11.6666 30C12.5507 30 13.3985 30.3512 14.0236 30.9763C14.6488 31.6014 15 32.4493 15 33.3333C15 34.2174 14.6488 35.0652 14.0236 35.6903C13.3985 36.3155 12.5507 36.6666 11.6666 36.6666C10.7826 36.6666 9.93472 36.3155 9.3096 35.6903C8.68448 35.0652 8.33329 34.2174 8.33329 33.3333C8.33329 31.4833 9.81663 30 11.6666 30ZM26.6666 18.3333L31.3 9.99998H10.2333L14.1666 18.3333H26.6666Z" fill="black"/>
</svg>
