<svg width="28" height="28" viewBox="0 0 28 28" fill="none" xmlns="http://www.w3.org/2000/svg">
<rect x="0.5" y="0.5" width="27" height="27" rx="13.5" fill="white"/>
<rect x="0.5" y="0.5" width="27" height="27" rx="13.5" stroke="#2F3137"/>
<path d="M19.7812 7.84375H19.75C19.4688 7.5625 19 7.5625 18.7188 7.84375L17.7812 8.75L19.25 10.2188L20.1562 9.28125C20.4375 9 20.4375 8.53125 20.1562 8.21875L19.7812 7.84375ZM12.5312 14.0312C12.4375 14.0938 12.375 14.2188 12.3438 14.3438L11.8125 16.1562L13.6562 15.6562C13.7812 15.625 13.875 15.5625 13.9688 15.4688L18.1875 11.25L16.75 9.8125L12.5312 14.0312ZM17.6562 6.78125C18.5312 5.90625 19.9375 5.90625 20.8125 6.78125L21.2188 7.1875C22.0938 8.0625 22.0938 9.46875 21.2188 10.3438L15.0312 16.5312C14.7812 16.7812 14.4375 16.9688 14.0625 17.0938L10.9375 17.9688C10.6875 18.0625 10.4062 18 10.2188 17.7812C10 17.5938 9.9375 17.3125 10 17.0625L10.9062 13.9375C11 13.5625 11.2188 13.2188 11.4688 12.9688L17.6562 6.78125ZM8.75 8H12.25C12.6562 8 13 8.34375 13 8.75C13 9.1875 12.6562 9.5 12.25 9.5H8.75C8.03125 9.5 7.5 10.0625 7.5 10.75V19.25C7.5 19.9688 8.03125 20.5 8.75 20.5H17.25C17.9375 20.5 18.5 19.9688 18.5 19.25V15.75C18.5 15.3438 18.8125 15 19.25 15C19.6562 15 20 15.3438 20 15.75V19.25C20 20.7812 18.75 22 17.25 22H8.75C7.21875 22 6 20.7812 6 19.25V10.75C6 9.25 7.21875 8 8.75 8Z" fill="#2F3137"/>
</svg>
