<svg width="20" height="16" viewBox="0 0 20 16" fill="none" xmlns="http://www.w3.org/2000/svg">
<path d="M0.399902 4.10005C0.399902 3.22483 0.74758 2.38547 1.36645 1.7666C1.98532 1.14773 2.82469 0.800049 3.6999 0.800049H16.2999C17.1751 0.800049 18.0145 1.14773 18.6334 1.7666C19.2522 2.38547 19.5999 3.22483 19.5999 4.10005V11.9C19.5999 12.7753 19.2522 13.6146 18.6334 14.2335C18.0145 14.8524 17.1751 15.2 16.2999 15.2H3.6999C2.82469 15.2 1.98532 14.8524 1.36645 14.2335C0.74758 13.6146 0.399902 12.7753 0.399902 11.9V4.10005ZM1.5999 8.00005V11.9C1.5999 13.0592 2.5407 14 3.6999 14H6.3999V8.84845L4.4247 10.8248C4.31204 10.9375 4.15923 11.0008 3.9999 11.0008C3.84057 11.0008 3.68777 10.9375 3.5751 10.8248C3.46244 10.7122 3.39914 10.5594 3.39914 10.4C3.39914 10.2407 3.46244 10.0879 3.5751 9.97525L5.5515 8.00005H1.5999ZM3.1215 6.80005C2.85739 6.34251 2.75162 5.81062 2.82059 5.28685C2.88956 4.76308 3.12943 4.2767 3.50299 3.90314C3.87655 3.52958 4.36293 3.28971 4.8867 3.22074C5.41047 3.15176 5.94237 3.25753 6.3999 3.52165V2.00005H3.6999C3.14295 2.00005 2.6088 2.2213 2.21498 2.61512C1.82115 3.00895 1.5999 3.54309 1.5999 4.10005V6.80005H3.1215ZM5.1999 6.80005H6.3999V5.60005C6.3999 5.36271 6.32952 5.1307 6.19767 4.93336C6.06581 4.73603 5.87839 4.58222 5.65912 4.49139C5.43985 4.40057 5.19857 4.3768 4.96579 4.42311C4.73302 4.46941 4.5192 4.5837 4.35137 4.75152C4.18355 4.91934 4.06926 5.13316 4.02296 5.36594C3.97666 5.59872 4.00042 5.84 4.09125 6.05927C4.18207 6.27854 4.33588 6.46595 4.53322 6.59781C4.73056 6.72967 4.96256 6.80005 5.1999 6.80005ZM7.5999 5.60005V6.80005H8.7999C9.03724 6.80005 9.26925 6.72967 9.46659 6.59781C9.66393 6.46595 9.81773 6.27854 9.90856 6.05927C9.99938 5.84 10.0231 5.59872 9.97684 5.36594C9.93054 5.13316 9.81625 4.91934 9.64843 4.75152C9.48061 4.5837 9.26679 4.46941 9.03401 4.42311C8.80123 4.3768 8.55995 4.40057 8.34068 4.49139C8.12141 4.58222 7.934 4.73603 7.80214 4.93336C7.67028 5.1307 7.5999 5.36271 7.5999 5.60005ZM10.8783 6.80005H18.3999V4.10005C18.3999 3.54309 18.1787 3.00895 17.7848 2.61512C17.391 2.2213 16.8569 2.00005 16.2999 2.00005H7.5999V3.52165C8.05744 3.25753 8.58933 3.15176 9.1131 3.22074C9.63688 3.28971 10.1233 3.52958 10.4968 3.90314C10.8704 4.2767 11.1102 4.76308 11.1792 5.28685C11.2482 5.81062 11.1424 6.34251 10.8783 6.80005ZM8.4483 8.00005L10.4247 9.97525C10.5374 10.0879 10.6007 10.2407 10.6007 10.4C10.6007 10.5594 10.5374 10.7122 10.4247 10.8248C10.312 10.9375 10.1592 11.0008 9.9999 11.0008C9.84057 11.0008 9.68777 10.9375 9.5751 10.8248L7.5999 8.84845V14H16.2999C16.8569 14 17.391 13.7788 17.7848 13.385C18.1787 12.9911 18.3999 12.457 18.3999 11.9V8.00005H8.4483Z" fill="#2F3137"/>
</svg>
