<svg width="24" height="24" viewBox="0 0 24 24" fill="none" xmlns="http://www.w3.org/2000/svg">
<path d="M10.803 2.92748C11.1406 2.65093 11.5636 2.49982 12 2.49982C12.4364 2.49982 12.8594 2.65093 13.197 2.92748L19.7845 8.29848C20.0087 8.48225 20.1891 8.71356 20.3129 8.97567C20.4366 9.23778 20.5005 9.52413 20.5 9.81398V19.5565C20.5 20.63 19.644 21.5 18.5875 21.5H15.9125C14.856 21.5 14 20.63 14 19.5565V14.9435C14 14.5855 13.715 14.2955 13.3625 14.2955H10.6375C10.2855 14.2955 10 14.5855 10 14.9435V19.5565C10 20.63 9.144 21.5 8.0875 21.5H5.4125C4.3565 21.5 3.5 20.63 3.5 19.5565V9.81398C3.49946 9.52413 3.56338 9.23778 3.68713 8.97567C3.81087 8.71356 3.99135 8.48225 4.2155 8.29848L10.803 2.92748ZM12.399 3.93798C12.2864 3.84585 12.1455 3.79552 12 3.79552C11.8545 3.79552 11.7136 3.84585 11.601 3.93798L5.0135 9.30848C4.93876 9.36979 4.87859 9.44695 4.83734 9.53438C4.79609 9.6218 4.7748 9.71731 4.775 9.81398V19.5565C4.775 19.9145 5.06 20.2045 5.4125 20.2045H8.0875C8.4395 20.2045 8.725 19.9145 8.725 19.5565V14.9435C8.725 13.87 9.5815 13 10.6375 13H13.3625C14.4185 13 15.275 13.87 15.275 14.9435V19.5565C15.275 19.9145 15.56 20.2045 15.9125 20.2045H18.5875C18.9395 20.2045 19.225 19.9145 19.225 19.5565V9.81398C19.2253 9.71737 19.204 9.62191 19.1628 9.53456C19.1215 9.4472 19.0613 9.37014 18.9865 9.30898L12.399 3.93798Z" fill="#2F3137"/>
</svg>
