<svg width="20" height="20" viewBox="0 0 20 20" fill="none" xmlns="http://www.w3.org/2000/svg">
<path fill-rule="evenodd" clip-rule="evenodd" d="M10 20C4.477 20 0 15.523 0 10C0 4.477 4.477 0 10 0C15.523 0 20 4.477 20 10C20 15.523 15.523 20 10 20ZM10 18C12.1217 18 14.1566 17.1571 15.6569 15.6569C17.1571 14.1566 18 12.1217 18 10C18 7.87827 17.1571 5.84344 15.6569 4.34315C14.1566 2.84285 12.1217 2 10 2C7.87827 2 5.84344 2.84285 4.34315 4.34315C2.84285 5.84344 2 7.87827 2 10C2 12.1217 2.84285 14.1566 4.34315 15.6569C5.84344 17.1571 7.87827 18 10 18ZM5 13H7V15L5 13ZM15 13L13 15V13H15ZM7 5V7H5L7 5ZM13 5L15 7H13V5ZM10.5 7C10.8978 7 11.2794 6.84196 11.5607 6.56066C11.842 6.27936 12 5.89782 12 5.5C12 5.10218 11.842 4.72064 11.5607 4.43934C11.2794 4.15804 10.8978 4 10.5 4C10.1022 4 9.72064 4.15804 9.43934 4.43934C9.15804 4.72064 9 5.10218 9 5.5C9 5.89782 9.15804 6.27936 9.43934 6.56066C9.72064 6.84196 10.1022 7 10.5 7ZM5.5 11C5.89782 11 6.27936 10.842 6.56066 10.5607C6.84196 10.2794 7 9.89782 7 9.5C7 9.10218 6.84196 8.72064 6.56066 8.43934C6.27936 8.15804 5.89782 8 5.5 8C5.10218 8 4.72064 8.15804 4.43934 8.43934C4.15804 8.72064 4 9.10218 4 9.5C4 9.89782 4.15804 10.2794 4.43934 10.5607C4.72064 10.842 5.10218 11 5.5 11ZM14.5 12C14.697 12 14.892 11.9612 15.074 11.8858C15.256 11.8104 15.4214 11.6999 15.5607 11.5607C15.6999 11.4214 15.8104 11.256 15.8858 11.074C15.9612 10.892 16 10.697 16 10.5C16 10.303 15.9612 10.108 15.8858 9.92597C15.8104 9.74399 15.6999 9.57863 15.5607 9.43934C15.4214 9.30005 15.256 9.18956 15.074 9.11418C14.892 9.0388 14.697 9 14.5 9C14.1022 9 13.7206 9.15804 13.4393 9.43934C13.158 9.72064 13 10.1022 13 10.5C13 10.8978 13.158 11.2794 13.4393 11.5607C13.7206 11.842 14.1022 12 14.5 12ZM10 11C10.2652 11 10.5196 10.8946 10.7071 10.7071C10.8946 10.5196 11 10.2652 11 10C11 9.73478 10.8946 9.48043 10.7071 9.29289C10.5196 9.10536 10.2652 9 10 9C9.73478 9 9.48043 9.10536 9.29289 9.29289C9.10536 9.48043 9 9.73478 9 10C9 10.2652 9.10536 10.5196 9.29289 10.7071C9.48043 10.8946 9.73478 11 10 11ZM9.5 16C9.89782 16 10.2794 15.842 10.5607 15.5607C10.842 15.2794 11 14.8978 11 14.5C11 14.1022 10.842 13.7206 10.5607 13.4393C10.2794 13.158 9.89782 13 9.5 13C9.10218 13 8.72064 13.158 8.43934 13.4393C8.15804 13.7206 8 14.1022 8 14.5C8 14.8978 8.15804 15.2794 8.43934 15.5607C8.72064 15.842 9.10218 16 9.5 16Z" fill="#2F3137"/>
</svg>
