<svg width="48" height="49" viewBox="0 0 48 49" fill="none" xmlns="http://www.w3.org/2000/svg">
<path d="M0 0.500244H48V26.4121L45.6241 30.1244L48 33.4283V48.5002H0V24.0733L1.48492 22.3657L0 20.7323V0.500244Z" fill="#016FD0"/>
<path d="M9.31641 33.9483V26.4124H17.2956L18.1517 27.5284L19.0361 26.4124H47.9985V33.4286C47.9985 33.4286 47.2411 33.9408 46.3651 33.9483H30.328L29.3628 32.7604V33.9483H26.1999V31.9205C26.1999 31.9205 25.7679 32.2035 24.8338 32.2035H23.7572V33.9483H18.9684L18.1135 32.8084L17.2455 33.9483H9.31641Z" fill="white"/>
<path d="M0 20.7322L1.79934 16.5374H4.91111L5.93225 18.8872V16.5374H9.80047L10.4084 18.2357L10.9977 16.5374H28.3619V17.3912C28.3619 17.3912 29.2748 16.5374 30.7749 16.5374L36.409 16.557L37.4125 18.8761V16.5374H40.6497L41.5406 17.8695V16.5374H44.8074V24.0733H41.5406L40.6868 22.7369V24.0733H35.9307L35.4524 22.8854H34.1739L33.7034 24.0733H30.478C29.1871 24.0733 28.3619 23.2369 28.3619 23.2369V24.0733H23.4988L22.5336 22.8854V24.0733H4.45012L3.97216 22.8854H2.69765L2.22307 24.0733H0V20.7322Z" fill="white"/>
<path d="M2.43668 17.4661L0.00976562 23.1088H1.58981L2.03761 21.9788H4.64086L5.08633 23.1088H6.70118L4.27659 17.4661H2.43668ZM3.33459 18.7793L4.1281 20.7538H2.53877L3.33459 18.7793Z" fill="#016FD0"/>
<path d="M6.86719 23.1078V17.4651L9.11252 17.4734L10.4185 21.1115L11.6932 17.4651H13.9206V23.1078H12.5099V18.95L11.0145 23.1078H9.77737L8.27786 18.95V23.1078H6.86719Z" fill="#016FD0"/>
<path d="M14.8867 23.1078V17.4651H19.49V18.7273H16.3122V19.6925H19.4157V20.8804H16.3122V21.8827H19.49V23.1078H14.8867Z" fill="#016FD0"/>
<path d="M20.3066 17.4661V23.1088H21.7173V21.1041H22.3113L24.0027 23.1088H25.7266L23.8704 21.0299C24.6322 20.9656 25.418 20.3118 25.418 19.2967C25.418 18.1093 24.486 17.4661 23.4459 17.4661H20.3066ZM21.7173 18.7282H23.3298C23.7167 18.7282 23.9981 19.0308 23.9981 19.3222C23.9981 19.6971 23.6335 19.9162 23.3507 19.9162H21.7173V18.7282Z" fill="#016FD0"/>
<path d="M27.4326 23.1078H25.9922V17.4651H27.4326V23.1078Z" fill="#016FD0"/>
<path d="M30.8496 23.1078H30.5387C29.0344 23.1078 28.1211 21.9226 28.1211 20.3096C28.1211 18.6568 29.0242 17.4651 30.9239 17.4651H32.483V18.8015H30.8669C30.0957 18.8015 29.5503 19.4033 29.5503 20.3236C29.5503 21.4163 30.174 21.8753 31.0724 21.8753H31.4436L30.8496 23.1078Z" fill="#016FD0"/>
<path d="M33.9191 17.4661L31.4922 23.1088H33.0722L33.52 21.9788H36.1233L36.5688 23.1088H38.1836L35.759 17.4661H33.9191ZM34.817 18.7793L35.6105 20.7538H34.0212L34.817 18.7793Z" fill="#016FD0"/>
<path d="M38.3477 23.1078V17.4651H40.1412L42.4312 21.0103V17.4651H43.8419V23.1078H42.1064L39.7583 19.4697V23.1078H38.3477Z" fill="#016FD0"/>
<path d="M10.2831 32.9828V27.3401H14.8863V28.6023H11.7086V29.5675H14.8121V30.7554H11.7086V31.7577H14.8863V32.9828H10.2831Z" fill="#016FD0"/>
<path d="M32.8398 32.9828V27.3401H37.4431V28.6023H34.2654V29.5675H37.354V30.7554H34.2654V31.7577H37.4431V32.9828H32.8398Z" fill="#016FD0"/>
<path d="M15.065 32.9828L17.3063 30.1962L15.0116 27.3401H16.7889L18.1554 29.1057L19.5267 27.3401H21.2343L18.9698 30.1614L21.2153 32.9828H19.4383L18.1114 31.245L16.8167 32.9828H15.065Z" fill="#016FD0"/>
<path d="M21.3828 27.3411V32.9838H22.8306V31.2019H24.3155C25.572 31.2019 26.5243 30.5353 26.5243 29.239C26.5243 28.1651 25.7774 27.3411 24.4988 27.3411H21.3828ZM22.8306 28.6172H24.3944C24.8003 28.6172 25.0905 28.866 25.0905 29.2668C25.0905 29.6434 24.8018 29.9165 24.3898 29.9165H22.8306V28.6172Z" fill="#016FD0"/>
<path d="M27.1369 27.3401V32.9828H28.5476V30.9781H29.1415L30.833 32.9828H32.5569L30.7007 30.9039C31.4625 30.8396 32.2483 30.1858 32.2483 29.1707C32.2483 27.9833 31.3163 27.3401 30.2761 27.3401H27.1369ZM28.5476 28.6023H30.1601C30.5469 28.6023 30.8283 28.9049 30.8283 29.1962C30.8283 29.5711 30.4637 29.7902 30.181 29.7902H28.5476V28.6023Z" fill="#016FD0"/>
<path d="M38.0951 32.9828V31.7577H40.9183C41.3361 31.7577 41.5169 31.532 41.5169 31.2844C41.5169 31.0472 41.3366 30.8074 40.9183 30.8074H39.6426C38.5336 30.8074 37.916 30.1317 37.916 29.1174C37.916 28.2126 38.4816 27.3401 40.1295 27.3401H42.8766L42.2826 28.6097H39.9067C39.4526 28.6097 39.3128 28.848 39.3128 29.0756C39.3128 29.3095 39.4855 29.5675 39.8325 29.5675H41.1689C42.4051 29.5675 42.9415 30.2687 42.9415 31.187C42.9415 32.1742 42.3438 32.9828 41.1016 32.9828H38.0951Z" fill="#016FD0"/>
<path d="M43.2731 32.9828V31.7577H46.0963C46.514 31.7577 46.6949 31.532 46.6949 31.2844C46.6949 31.0472 46.5146 30.8074 46.0963 30.8074H44.8205C43.7116 30.8074 43.094 30.1317 43.094 29.1174C43.094 28.2126 43.6596 27.3401 45.3075 27.3401H48.0546L47.4606 28.6097H45.0847C44.6306 28.6097 44.4907 28.848 44.4907 29.0756C44.4907 29.3095 44.6635 29.5675 45.0105 29.5675H46.3469C47.5831 29.5675 48.1195 30.2687 48.1195 31.187C48.1195 32.1742 47.5218 32.9828 46.2796 32.9828H43.2731Z" fill="#016FD0"/>
</svg>
