<svg width="16" height="16" viewBox="0 0 16 16" fill="none" xmlns="http://www.w3.org/2000/svg">
<path d="M15.6653 4.12426C15.4813 3.43159 14.9393 2.88559 14.2507 2.70026C13.0033 2.36426 8 2.36426 8 2.36426C8 2.36426 2.99667 2.36426 1.74867 2.70026C1.06067 2.88559 0.518667 3.43092 0.334667 4.12426C0 5.38026 0 8.00026 0 8.00026C0 8.00026 0 10.6203 0.334667 11.8763C0.518667 12.5689 1.06067 13.1149 1.74933 13.3003C2.99667 13.6363 8 13.6363 8 13.6363C8 13.6363 13.0033 13.6363 14.2513 13.3003C14.9393 13.1149 15.4813 12.5696 15.666 11.8763C16 10.6203 16 8.00026 16 8.00026C16 8.00026 16 5.38026 15.6653 4.12426ZM6.364 10.3796V5.62092L10.5453 8.00026L6.364 10.3796Z" fill="white"/>
</svg>
