<svg width="27" height="27" viewBox="0 0 27 27" fill="none" xmlns="http://www.w3.org/2000/svg">
<g clip-path="url(#clip0_985_1003)">
<path d="M21.375 1.58325H5.625C4.13371 1.58497 2.704 2.15621 1.6495 3.17166C0.594992 4.18711 0.00178634 5.56386 0 6.99992L0 19.9999C0.00178634 21.436 0.594992 22.8127 1.6495 23.8282C2.704 24.8436 4.13371 25.4149 5.625 25.4166H21.375C22.8663 25.4149 24.296 24.8436 25.3505 23.8282C26.405 22.8127 26.9982 21.436 27 19.9999V6.99992C26.9982 5.56386 26.405 4.18711 25.3505 3.17166C24.296 2.15621 22.8663 1.58497 21.375 1.58325ZM5.625 3.74992H21.375C22.0486 3.75119 22.7065 3.94656 23.2638 4.31087C23.8212 4.67519 24.2526 5.19178 24.5025 5.79417L15.8872 14.0914C15.2532 14.6995 14.3948 15.0409 13.5 15.0409C12.6052 15.0409 11.7468 14.6995 11.1128 14.0914L2.4975 5.79417C2.74742 5.19178 3.17882 4.67519 3.73618 4.31087C4.29354 3.94656 4.95137 3.75119 5.625 3.74992ZM21.375 23.2499H5.625C4.72989 23.2499 3.87145 22.9075 3.23851 22.298C2.60558 21.6885 2.25 20.8619 2.25 19.9999V8.62492L9.522 15.6233C10.578 16.6375 12.0085 17.2071 13.5 17.2071C14.9915 17.2071 16.422 16.6375 17.478 15.6233L24.75 8.62492V19.9999C24.75 20.8619 24.3944 21.6885 23.7615 22.298C23.1286 22.9075 22.2701 23.2499 21.375 23.2499Z" fill="white"/>
</g>
<defs>
<clipPath id="clip0_985_1003">
<rect width="27" height="26" fill="white" transform="translate(0 0.5)"/>
</clipPath>
</defs>
</svg>
