<svg width="32" height="32" viewBox="0 0 32 32" fill="none" xmlns="http://www.w3.org/2000/svg">
<rect width="32" height="32" rx="16" fill="#212121"/>
<g clip-path="url(#clip0_16_2569)">
<path d="M24 16.0486C24 20.0413 21.0707 23.3513 17.2467 23.9519V18.3766H19.106L19.46 16.0699H17.2467V14.5733C17.2467 13.9419 17.556 13.3273 18.5467 13.3273H19.5527V11.3633C19.5527 11.3633 18.6393 11.2073 17.7667 11.2073C15.944 11.2073 14.7533 12.3119 14.7533 14.3113V16.0693H12.7273V18.3759H14.7533V23.9513C10.93 23.3499 8 20.0406 8 16.0486C8 11.6306 11.582 8.04858 16 8.04858C20.418 8.04858 24 11.6299 24 16.0486Z" fill="white"/>
</g>
<defs>
<clipPath id="clip0_16_2569">
<rect width="16" height="16" fill="white" transform="translate(8 8)"/>
</clipPath>
</defs>
</svg>
