<svg width="27" height="27" viewBox="0 0 27 27" fill="none" xmlns="http://www.w3.org/2000/svg">
<g clip-path="url(#clip0_985_724)">
<path d="M13.5 6.75C12.61 6.75 11.74 7.01392 10.9999 7.50839C10.2599 8.00285 9.68314 8.70566 9.34254 9.52792C9.00195 10.3502 8.91283 11.255 9.08647 12.1279C9.2601 13.0008 9.68869 13.8026 10.318 14.432C10.9474 15.0613 11.7492 15.4899 12.6221 15.6635C13.495 15.8372 14.3998 15.7481 15.2221 15.4075C16.0443 15.0669 16.7471 14.4901 17.2416 13.7501C17.7361 13.01 18 12.14 18 11.25C18 10.0565 17.5259 8.91193 16.682 8.06802C15.8381 7.22411 14.6935 6.75 13.5 6.75ZM13.5 13.5C13.055 13.5 12.62 13.368 12.25 13.1208C11.88 12.8736 11.5916 12.5222 11.4213 12.111C11.251 11.6999 11.2064 11.2475 11.2932 10.811C11.3801 10.3746 11.5943 9.97368 11.909 9.65901C12.2237 9.34434 12.6246 9.13005 13.061 9.04323C13.4975 8.95642 13.9499 9.00097 14.361 9.17127C14.7722 9.34157 15.1236 9.62996 15.3708 9.99997C15.618 10.37 15.75 10.805 15.75 11.25C15.75 11.8467 15.5129 12.419 15.091 12.841C14.669 13.2629 14.0967 13.5 13.5 13.5Z" fill="white"/>
<path d="M13.5 27.0001C12.5527 27.0049 11.618 26.7827 10.7742 26.3521C9.9304 25.9215 9.20204 25.295 8.65013 24.5251C4.36275 18.6109 2.18813 14.1649 2.18813 11.3097C2.18813 8.30958 3.37991 5.43236 5.5013 3.31097C7.62268 1.18959 10.4999 -0.00219727 13.5 -0.00219727C16.5001 -0.00219727 19.3773 1.18959 21.4987 3.31097C23.6201 5.43236 24.8119 8.30958 24.8119 11.3097C24.8119 14.1649 22.6372 18.6109 18.3499 24.5251C17.798 25.295 17.0696 25.9215 16.2258 26.3521C15.382 26.7827 14.4473 27.0049 13.5 27.0001ZM13.5 2.45368C11.1515 2.45636 8.89989 3.3905 7.23923 5.05116C5.57857 6.71182 4.64443 8.9634 4.64175 11.3119C4.64175 13.5732 6.77137 17.7548 10.6369 23.0862C10.965 23.5382 11.3955 23.9061 11.8932 24.1597C12.3908 24.4134 12.9414 24.5456 13.5 24.5456C14.0586 24.5456 14.6092 24.4134 15.1068 24.1597C15.6045 23.9061 16.035 23.5382 16.3631 23.0862C20.2286 17.7548 22.3582 13.5732 22.3582 11.3119C22.3556 8.9634 21.4214 6.71182 19.7608 5.05116C18.1001 3.3905 15.8485 2.45636 13.5 2.45368Z" fill="white"/>
</g>
<defs>
<clipPath id="clip0_985_724">
<rect width="27" height="27" fill="white"/>
</clipPath>
</defs>
</svg>
