<svg width="39" height="31" viewBox="0 0 39 31" fill="none" xmlns="http://www.w3.org/2000/svg">
<path d="M7.08554 30.643V28.6379C7.08554 27.8693 6.61769 27.3681 5.81567 27.3681C5.41466 27.3681 4.98023 27.5017 4.67948 27.9362C4.44555 27.5686 4.11138 27.3681 3.61012 27.3681C3.27594 27.3681 2.94176 27.4683 2.67442 27.8359V27.4349H1.97266V30.643H2.67442V28.8719C2.67442 28.3038 2.97518 28.0364 3.44303 28.0364C3.91087 28.0364 4.1448 28.3372 4.1448 28.8719V30.643H4.84656V28.8719C4.84656 28.3038 5.18074 28.0364 5.61517 28.0364C6.08301 28.0364 6.31694 28.3372 6.31694 28.8719V30.643H7.08554ZM17.4784 27.4349H16.3422V26.4658H15.6404V27.4349H15.0055V28.0698H15.6404V29.5402C15.6404 30.2754 15.9412 30.7098 16.7432 30.7098C17.044 30.7098 17.3781 30.6096 17.6121 30.4759L17.4116 29.8744C17.211 30.0081 16.9771 30.0415 16.81 30.0415C16.4759 30.0415 16.3422 29.841 16.3422 29.5068V28.0698H17.4784V27.4349ZM23.4267 27.3681C23.0257 27.3681 22.7584 27.5686 22.5913 27.8359V27.4349H21.8895V30.643H22.5913V28.8384C22.5913 28.3038 22.8252 28.003 23.2596 28.003C23.3933 28.003 23.5604 28.0364 23.694 28.0698L23.8946 27.4015C23.7609 27.3681 23.5604 27.3681 23.4267 27.3681ZM14.4374 27.7022C14.1032 27.4683 13.6354 27.3681 13.1341 27.3681C12.3321 27.3681 11.7974 27.7691 11.7974 28.404C11.7974 28.9387 12.1984 29.2395 12.9002 29.3397L13.2344 29.3731C13.602 29.44 13.8025 29.5402 13.8025 29.7073C13.8025 29.9412 13.5351 30.1083 13.0673 30.1083C12.5994 30.1083 12.2318 29.9412 11.9979 29.7741L11.6637 30.3088C12.0313 30.5762 12.5326 30.7098 13.0339 30.7098C13.9695 30.7098 14.5042 30.2754 14.5042 29.6739C14.5042 29.1058 14.0698 28.805 13.4014 28.7048L13.0673 28.6714C12.7665 28.6379 12.5326 28.5711 12.5326 28.3706C12.5326 28.1367 12.7665 28.003 13.1341 28.003C13.5351 28.003 13.9361 28.1701 14.1366 28.2703L14.4374 27.7022ZM33.0844 27.3681C32.6834 27.3681 32.416 27.5686 32.2489 27.8359V27.4349H31.5472V30.643H32.2489V28.8384C32.2489 28.3038 32.4829 28.003 32.9173 28.003C33.051 28.003 33.218 28.0364 33.3517 28.0698L33.5522 27.4015C33.4185 27.3681 33.218 27.3681 33.0844 27.3681ZM24.1285 29.0389C24.1285 30.0081 24.7968 30.7098 25.8328 30.7098C26.3006 30.7098 26.6348 30.6096 26.969 30.3422L26.6348 29.7741C26.3674 29.9746 26.1001 30.0749 25.7994 30.0749C25.2313 30.0749 24.8302 29.6739 24.8302 29.0389C24.8302 28.4374 25.2313 28.0364 25.7994 28.003C26.1001 28.003 26.3674 28.1033 26.6348 28.3038L26.969 27.7357C26.6348 27.4683 26.3006 27.3681 25.8328 27.3681C24.7968 27.3681 24.1285 28.0698 24.1285 29.0389ZM30.6115 29.0389V27.4349H29.9097V27.8359C29.6758 27.5352 29.3416 27.3681 28.9072 27.3681C28.0049 27.3681 27.3031 28.0698 27.3031 29.0389C27.3031 30.0081 28.0049 30.7098 28.9072 30.7098C29.375 30.7098 29.7092 30.5427 29.9097 30.242V30.643H30.6115V29.0389ZM28.0383 29.0389C28.0383 28.4708 28.4059 28.003 29.0074 28.003C29.5755 28.003 29.9765 28.4374 29.9765 29.0389C29.9765 29.607 29.5755 30.0749 29.0074 30.0749C28.4059 30.0415 28.0383 29.607 28.0383 29.0389ZM19.6505 27.3681C18.7148 27.3681 18.0465 28.0364 18.0465 29.0389C18.0465 30.0415 18.7148 30.7098 19.6839 30.7098C20.1518 30.7098 20.6196 30.5762 20.9872 30.2754L20.6531 29.7741C20.3857 29.9746 20.0515 30.1083 19.7174 30.1083C19.2829 30.1083 18.8485 29.9078 18.7483 29.3397H21.1209V29.0724C21.1543 28.0364 20.5528 27.3681 19.6505 27.3681ZM19.6505 27.9696C20.085 27.9696 20.3857 28.2369 20.4525 28.7382H18.7817C18.8485 28.3038 19.1493 27.9696 19.6505 27.9696ZM37.0611 29.0389V26.165H36.3593V27.8359C36.1254 27.5352 35.7912 27.3681 35.3568 27.3681C34.4545 27.3681 33.7527 28.0698 33.7527 29.0389C33.7527 30.0081 34.4545 30.7098 35.3568 30.7098C35.8246 30.7098 36.1588 30.5427 36.3593 30.242V30.643H37.0611V29.0389ZM34.4879 29.0389C34.4879 28.4708 34.8555 28.003 35.457 28.003C36.0251 28.003 36.4261 28.4374 36.4261 29.0389C36.4261 29.607 36.0251 30.0749 35.457 30.0749C34.8555 30.0415 34.4879 29.607 34.4879 29.0389ZM11.0288 29.0389V27.4349H10.327V27.8359C10.0931 27.5352 9.75894 27.3681 9.32451 27.3681C8.42224 27.3681 7.72047 28.0698 7.72047 29.0389C7.72047 30.0081 8.42224 30.7098 9.32451 30.7098C9.79236 30.7098 10.1265 30.5427 10.327 30.242V30.643H11.0288V29.0389ZM8.42224 29.0389C8.42224 28.4708 8.78983 28.003 9.39135 28.003C9.95944 28.003 10.3605 28.4374 10.3605 29.0389C10.3605 29.607 9.95944 30.0749 9.39135 30.0749C8.78983 30.0415 8.42224 29.607 8.42224 29.0389Z" fill="white"/>
<path d="M24.7296 3.07324H14.2031V21.9876H24.7296V3.07324Z" fill="#FF5F00"/>
<path d="M14.8708 12.5303C14.8708 8.68729 16.6753 5.27871 19.449 3.07315C17.4105 1.46911 14.8374 0.5 12.0303 0.5C5.38022 0.5 0 5.88022 0 12.5303C0 19.1804 5.38022 24.5606 12.0303 24.5606C14.8374 24.5606 17.4105 23.5915 19.449 21.9875C16.6753 19.8153 14.8708 16.3733 14.8708 12.5303Z" fill="#EB001B"/>
<path d="M38.9314 12.5303C38.9314 19.1804 33.5512 24.5606 26.9011 24.5606C24.094 24.5606 21.5209 23.5915 19.4824 21.9875C22.2895 19.7819 24.0606 16.3733 24.0606 12.5303C24.0606 8.68729 22.2561 5.27871 19.4824 3.07315C21.5209 1.46911 24.094 0.5 26.9011 0.5C33.5512 0.5 38.9314 5.91364 38.9314 12.5303Z" fill="#F79E1B"/>
</svg>
