<svg width="48" height="21" viewBox="0 0 48 21" fill="none" xmlns="http://www.w3.org/2000/svg">
<path d="M9.0715 2.94431C9.6355 2.23831 10.0195 1.28831 9.9195 0.320312C9.0915 0.360312 8.0815 0.864312 7.4975 1.57231C6.9735 2.17831 6.5075 3.16631 6.6295 4.09631C7.5575 4.17631 8.4855 3.63231 9.0715 2.94431ZM9.9075 4.27831C8.5595 4.19831 7.4115 5.04431 6.7675 5.04431C6.1235 5.04431 5.1375 4.32031 4.0695 4.33831C3.37562 4.35604 2.69843 4.55494 2.10516 4.91525C1.51189 5.27556 1.02317 5.78476 0.687502 6.39231C-0.762499 8.89031 0.305502 12.5943 1.7135 14.6283C2.3975 15.6343 3.2235 16.7423 4.3095 16.7023C5.3355 16.6623 5.7395 16.0383 6.9875 16.0383C8.2355 16.0383 8.5975 16.7023 9.6835 16.6823C10.8115 16.6623 11.5155 15.6763 12.1995 14.6683C12.9855 13.5203 13.3055 12.4143 13.3255 12.3523C13.3055 12.3323 11.1515 11.5063 11.1315 9.03031C11.1115 6.95631 12.8215 5.97031 12.9035 5.90831C11.9415 4.48031 10.4315 4.31831 9.9075 4.27831ZM21.6515 1.47031C24.5835 1.47031 26.6235 3.49031 26.6235 6.43231C26.6235 9.38431 24.5395 11.4163 21.5775 11.4163H18.3315V16.5783H15.9875V1.47031H21.6515ZM18.3315 9.44831H21.0215C23.0635 9.44831 24.2255 8.34831 24.2255 6.44431C24.2255 4.53831 23.0635 3.45031 21.0335 3.45031H18.3335L18.3315 9.44831ZM27.2355 13.4483C27.2355 11.5223 28.7115 10.3383 31.3295 10.1923L34.3435 10.0143V9.16631C34.3435 7.94231 33.5155 7.20831 32.1355 7.20831C30.8275 7.20831 30.0095 7.83631 29.8115 8.82031H27.6755C27.8015 6.83031 29.4975 5.36631 32.2195 5.36631C34.8895 5.36631 36.5955 6.78031 36.5955 8.98831V16.5783H34.4275V14.7663H34.3755C33.7375 15.9903 32.3455 16.7663 30.8995 16.7663C28.7435 16.7663 27.2355 15.4263 27.2355 13.4483ZM34.3435 12.4523V11.5843L31.6315 11.7523C30.2815 11.8463 29.5175 12.4423 29.5175 13.3863C29.5175 14.3483 30.3135 14.9783 31.5275 14.9783C33.1095 14.9763 34.3435 13.8863 34.3435 12.4523ZM38.6415 20.6283V18.7963C38.8095 18.8383 39.1855 18.8383 39.3735 18.8383C40.4195 18.8383 40.9855 18.3983 41.3315 17.2683C41.3315 17.2483 41.5315 16.5983 41.5315 16.5883L37.5535 5.56431H40.0035L42.7875 14.5263H42.8295L45.6135 5.56431H47.9995L43.8755 17.1523C42.9335 19.8223 41.8455 20.6803 39.5635 20.6803C39.2555 20.6796 38.9477 20.6623 38.6415 20.6283Z" fill="white"/>
</svg>
