<svg width="27" height="28" viewBox="0 0 27 28" fill="none" xmlns="http://www.w3.org/2000/svg">
<g clip-path="url(#clip0_16_2552)">
<path d="M14.625 1.62509C14.625 1.32672 14.7435 1.04057 14.9545 0.829592C15.1655 0.618614 15.4516 0.500088 15.75 0.500088C18.7327 0.503363 21.5923 1.68968 23.7013 3.79875C25.8104 5.90783 26.9967 8.76741 27 11.7501C27 12.0485 26.8815 12.3346 26.6705 12.5456C26.4595 12.7566 26.1734 12.8751 25.875 12.8751C25.5766 12.8751 25.2905 12.7566 25.0795 12.5456C24.8685 12.3346 24.75 12.0485 24.75 11.7501C24.7473 9.36396 23.7982 7.07633 22.111 5.38909C20.4238 3.70184 18.1361 2.75277 15.75 2.75009C15.4516 2.75009 15.1655 2.63156 14.9545 2.42058C14.7435 2.2096 14.625 1.92346 14.625 1.62509ZM15.75 7.25009C16.9435 7.25009 18.0881 7.72419 18.932 8.56811C19.7759 9.41202 20.25 10.5566 20.25 11.7501C20.25 12.0485 20.3685 12.3346 20.5795 12.5456C20.7905 12.7566 21.0766 12.8751 21.375 12.8751C21.6734 12.8751 21.9595 12.7566 22.1705 12.5456C22.3815 12.3346 22.5 12.0485 22.5 11.7501C22.4982 9.96043 21.7865 8.24457 20.521 6.97909C19.2555 5.71361 17.5397 5.00187 15.75 5.00009C15.4516 5.00009 15.1655 5.11861 14.9545 5.32959C14.7435 5.54057 14.625 5.82672 14.625 6.12509C14.625 6.42346 14.7435 6.7096 14.9545 6.92058C15.1655 7.13156 15.4516 7.25009 15.75 7.25009ZM25.9796 19.3315C26.6316 19.9852 26.9977 20.8708 26.9977 21.7941C26.9977 22.7174 26.6316 23.603 25.9796 24.2567L24.9559 25.4368C15.7421 34.258 -6.67913 11.8423 2.00587 2.59934L3.29962 1.47434C3.95411 0.840599 4.8318 0.490018 5.74279 0.498439C6.65379 0.506861 7.52484 0.873608 8.1675 1.51934C8.20237 1.55421 10.287 4.26209 10.287 4.26209C10.9056 4.91192 11.2499 5.77513 11.2484 6.67229C11.247 7.56945 10.8998 8.43153 10.2791 9.07934L8.97637 10.7173C9.69733 12.4691 10.7573 14.0611 12.0954 15.4019C13.4336 16.7428 15.0235 17.806 16.7737 18.5305L18.4219 17.2198C19.0698 16.5996 19.9317 16.2529 20.8286 16.2516C21.7255 16.2504 22.5884 16.5947 23.238 17.2131C23.238 17.2131 25.9447 19.2966 25.9796 19.3315ZM24.4316 20.9672C24.4316 20.9672 21.7395 18.8961 21.7046 18.8612C21.4729 18.6314 21.1597 18.5025 20.8333 18.5025C20.5069 18.5025 20.1938 18.6314 19.962 18.8612C19.9316 18.8927 17.6625 20.7006 17.6625 20.7006C17.5096 20.8223 17.3276 20.9021 17.1345 20.9321C16.9414 20.9621 16.7437 20.9412 16.5611 20.8716C14.2936 20.0274 12.2341 18.7057 10.5219 16.9961C8.8098 15.2864 7.48508 13.2288 6.6375 10.9626C6.56235 10.7775 6.53785 10.5757 6.56652 10.378C6.59518 10.1803 6.67599 9.99373 6.80062 9.83759C6.80062 9.83759 8.6085 7.56734 8.63887 7.53809C8.86868 7.30632 8.99761 6.99316 8.99761 6.66678C8.99761 6.34039 8.86868 6.02723 8.63887 5.79546C8.604 5.76171 6.53287 3.06734 6.53287 3.06734C6.29764 2.85641 5.99063 2.74344 5.67478 2.7516C5.35893 2.75976 5.05816 2.88842 4.83412 3.11121L3.54037 4.23621C-2.80688 11.8682 16.623 30.2203 23.3111 23.9001L24.336 22.7188C24.5762 22.4964 24.7204 22.1893 24.7383 21.8624C24.7561 21.5355 24.6461 21.2145 24.4316 20.9672Z" fill="white"/>
</g>
<defs>
<clipPath id="clip0_16_2552">
<rect width="27" height="27" fill="white" transform="translate(0 0.5)"/>
</clipPath>
</defs>
</svg>
