<svg width="46" height="30" viewBox="0 0 46 30" fill="none" xmlns="http://www.w3.org/2000/svg">
<g clip-path="url(#clip0_16_2512)">
<mask id="mask0_16_2512" style="mask-type:luminance" maskUnits="userSpaceOnUse" x="0" y="25" width="46" height="5">
<path d="M0 25.0205H46V29.1475H0V25.0205Z" fill="white"/>
</mask>
<g mask="url(#mask0_16_2512)">
<path d="M0 29.1472H46V25.0234H0V29.1472Z" fill="#F3B500"/>
</g>
<mask id="mask1_16_2512" style="mask-type:luminance" maskUnits="userSpaceOnUse" x="0" y="0" width="46" height="5">
<path d="M0 0.5H46V4.64426H0V0.5Z" fill="white"/>
</mask>
<g mask="url(#mask1_16_2512)">
<path d="M0 4.62439H46V0.500244H0V4.62439Z" fill="#2B2963"/>
</g>
<path d="M22.6023 9.1682L20.1776 20.5042H17.2453L19.6701 9.1682H22.6023ZM34.9403 16.488L36.4843 12.2308L37.3721 16.488H34.9403ZM38.2135 20.5042H40.9255L38.5564 9.1682H36.0548C35.4909 9.1682 35.0162 9.49528 34.8052 9.9997L30.4053 20.5042H33.4853L34.0963 18.811H37.8585L38.2135 20.5042ZM30.5576 16.803C30.5708 13.8117 26.4225 13.6455 26.4499 12.3093C26.4586 11.9028 26.846 11.4702 27.6933 11.3599C28.1133 11.3056 29.2722 11.2618 30.5859 11.8668L31.0998 9.46229C30.3938 9.20695 29.4862 8.96094 28.3566 8.96094C25.4575 8.96094 23.418 10.5012 23.4014 12.7081C23.3827 14.3402 24.8583 15.2499 25.9675 15.7932C27.1117 16.3493 27.4948 16.7055 27.489 17.2017C27.4807 17.9624 26.5765 18.2991 25.7349 18.3118C24.2598 18.3347 23.4053 17.9133 22.7233 17.5952L22.1913 20.0806C22.8771 20.3948 24.142 20.6678 25.4511 20.6822C28.5337 20.6822 30.549 19.1599 30.5576 16.803ZM18.4121 9.1682L13.6602 20.5042H10.5607L8.22176 11.457C8.08047 10.9009 7.95661 10.6963 7.52553 10.4616C6.8201 10.0783 5.65637 9.72008 4.63281 9.49724L4.70198 9.1682H9.69221C10.3274 9.1682 10.8997 9.59143 11.0454 10.3232L12.2809 16.8835L15.331 9.1682" fill="white"/>
</g>
<defs>
<clipPath id="clip0_16_2512">
<rect width="46" height="28.6472" fill="white" transform="translate(0 0.5)"/>
</clipPath>
</defs>
</svg>
