<svg width="32" height="32" viewBox="0 0 32 32" fill="none" xmlns="http://www.w3.org/2000/svg">
<path d="M21.75 4C19.07 4 16.76 5.27375 15.5 7.38375C14.24 5.27375 11.93 4 9.25 4C7.32789 4.00232 5.48517 4.7669 4.12603 6.12603C2.7669 7.48517 2.00232 9.32789 2 11.25C2 14.8237 4.25 18.5587 8.675 22.3487C10.7181 24.0874 12.9242 25.6249 15.2625 26.94C15.3355 26.9794 15.4171 27 15.5 27C15.5829 27 15.6645 26.9794 15.7375 26.94C18.0758 25.6249 20.2819 24.0874 22.325 22.3487C26.75 18.5587 29 14.8237 29 11.25C28.9977 9.32789 28.2331 7.48517 26.874 6.12603C25.5148 4.7669 23.6721 4.00232 21.75 4ZM15.5 25.9275C13.75 24.9325 3 18.5087 3 11.25C3.00198 9.59301 3.6611 8.00445 4.83277 6.83277C6.00445 5.6611 7.59301 5.00198 9.25 5C11.8888 5 14.1063 6.41375 15.0375 8.68875C15.0752 8.78046 15.1393 8.85889 15.2216 8.91409C15.304 8.96929 15.4009 8.99877 15.5 8.99877C15.5991 8.99877 15.696 8.96929 15.7784 8.91409C15.8607 8.85889 15.9248 8.78046 15.9625 8.68875C16.8937 6.41375 19.1112 5 21.75 5C23.407 5.00198 24.9956 5.6611 26.1672 6.83277C27.3389 8.00445 27.998 9.59301 28 11.25C28 18.5 17.25 24.9325 15.5 25.9275Z" fill="black"/>
</svg>
