<svg width="32" height="32" viewBox="0 0 32 32" fill="none" xmlns="http://www.w3.org/2000/svg">
<path d="M22.6667 24.0001C23.3739 24.0001 24.0522 24.281 24.5523 24.7811C25.0524 25.2812 25.3333 25.9595 25.3333 26.6667C25.3333 27.374 25.0524 28.0523 24.5523 28.5524C24.0522 29.0525 23.3739 29.3334 22.6667 29.3334C21.9594 29.3334 21.2811 29.0525 20.781 28.5524C20.2809 28.0523 20 27.374 20 26.6667C20 25.1867 21.1867 24.0001 22.6667 24.0001ZM1.33333 2.66675H5.69333L6.94666 5.33341H26.6667C27.0203 5.33341 27.3594 5.47389 27.6095 5.72394C27.8595 5.97399 28 6.31313 28 6.66675C28 6.89341 27.9333 7.12008 27.84 7.33341L23.0667 15.9601C22.6133 16.7734 21.7333 17.3334 20.7333 17.3334H10.8L9.59999 19.5067L9.55999 19.6667C9.55999 19.7552 9.59511 19.8399 9.65763 19.9024C9.72014 19.965 9.80492 20.0001 9.89333 20.0001H25.3333V22.6667H9.33333C8.62608 22.6667 7.94781 22.3858 7.44771 21.8857C6.94761 21.3856 6.66666 20.7073 6.66666 20.0001C6.66666 19.5334 6.78666 19.0934 6.98666 18.7201L8.79999 15.4534L3.99999 5.33341H1.33333V2.66675ZM9.33333 24.0001C10.0406 24.0001 10.7188 24.281 11.2189 24.7811C11.719 25.2812 12 25.9595 12 26.6667C12 27.374 11.719 28.0523 11.2189 28.5524C10.7188 29.0525 10.0406 29.3334 9.33333 29.3334C8.62608 29.3334 7.94781 29.0525 7.44771 28.5524C6.94761 28.0523 6.66666 27.374 6.66666 26.6667C6.66666 25.1867 7.85333 24.0001 9.33333 24.0001ZM21.3333 14.6667L25.04 8.00008H8.18666L11.3333 14.6667H21.3333Z" fill="white"/>
</svg>
