<svg width="32" height="33" viewBox="0 0 32 33" fill="none" xmlns="http://www.w3.org/2000/svg">
<path d="M3.813 19.7417L4.656 20.0547L26.563 28.0547L27.156 28.2727L28.156 27.2727L27.938 26.6797L19.938 4.77271L19.625 3.9297L18.75 4.14771C18.75 4.14771 13.121 5.5577 9.281 9.39771C5.441 13.2377 4.031 18.8667 4.031 18.8667L3.813 19.7417ZM6.281 18.5227C6.633 17.3867 7.867 13.6867 10.719 10.8357C13.57 7.98371 17.269 6.7497 18.406 6.39771L18.969 7.9297C18.4903 8.04213 18.0202 8.18816 17.562 8.3667C16.051 8.97671 14.066 10.1127 12.032 12.1477C9.996 14.1827 8.891 16.1677 8.282 17.6797C8.066 18.2187 7.922 18.6797 7.812 19.0857L6.281 18.5227ZM9.688 19.7417C9.778 19.4057 9.906 18.9757 10.125 18.4287C10.645 17.1397 11.609 15.3827 13.438 13.5547C13.973 13.0187 14.488 12.5777 15 12.1797C15.0174 12.6988 15.2356 13.1909 15.6087 13.5522C15.9818 13.9136 16.4806 14.116 17 14.1167C17.5304 14.1167 18.0391 13.906 18.4142 13.5309C18.7893 13.1558 19 12.6471 19 12.1167C19 11.3787 18.598 10.7457 18 10.3977C18.102 10.3547 18.215 10.2807 18.313 10.2417C18.875 10.0147 19.32 9.89371 19.656 9.80371L23.281 19.8037C23.0439 19.9311 22.846 20.1206 22.7084 20.3519C22.5708 20.5832 22.4988 20.8476 22.5 21.1167C22.4997 21.3404 22.5494 21.5614 22.6456 21.7634C22.7417 21.9654 22.8819 22.1433 23.0557 22.2842C23.2295 22.425 23.4326 22.5252 23.6502 22.5774C23.8677 22.6295 24.0942 22.6324 24.313 22.5857L25.375 25.4917L15.781 21.9917C15.9197 21.7205 15.9946 21.4212 16 21.1167C16.0014 20.6289 15.8245 20.1574 15.5026 19.7909C15.1807 19.4244 14.7359 19.1882 14.2519 19.1267C13.768 19.0653 13.2783 19.1828 12.875 19.4572C12.4716 19.7316 12.1825 20.144 12.062 20.6167L9.688 19.7417ZM17.5 18.1167C17.5 18.5145 17.658 18.8961 17.9393 19.1774C18.2206 19.4587 18.6022 19.6167 19 19.6167C19.3978 19.6167 19.7794 19.4587 20.0607 19.1774C20.342 18.8961 20.5 18.5145 20.5 18.1167C20.5 17.7189 20.342 17.3373 20.0607 17.056C19.7794 16.7747 19.3978 16.6167 19 16.6167C18.6022 16.6167 18.2206 16.7747 17.9393 17.056C17.658 17.3373 17.5 17.7189 17.5 18.1167Z" fill="#F9F9F9"/>
</svg>
